<svg xmlns="http://www.w3.org/2000/svg" width="273.997" height="291.998" viewBox="0 0 273.997 291.998">
  <g id="Group_74" data-name="Group 74" transform="translate(-829 -258.999)">
    <path id="Subtraction_6" data-name="Subtraction 6" d="M-16455.086,245h0a36.606,36.606,0,0,1-24.754-9.485c-1.393-1.3-5.363-5.339-7.7-7.757a3.575,3.575,0,0,0-1.137-1.895,2.1,2.1,0,0,0-.176-.35l-.016-.025-.012-.023a1.9,1.9,0,0,1-.18-.36,1.744,1.744,0,0,0-.242-.441l-.018-.026-.016-.023a1.055,1.055,0,0,1-.1-.172c-.432-2.143-1.178-4.774-1.8-5.484a69.664,69.664,0,0,1-12.812,4.5,52.718,52.718,0,0,1-12.232,1.495,46.81,46.81,0,0,1-10.572-1.208,49.343,49.343,0,0,1-10.164-3.593,60.283,60.283,0,0,1-9.777-5.958,80.628,80.628,0,0,1-9.43-8.294v2.84h-9.119c-.316-4.59-.562-9.165-.8-13.588l-.025-.458-.09-1.7-.033-.716c-.16-2.58-.3-5.209-.439-7.751l-.018-.292-.006-.115q-.047-.863-.092-1.718v-.021l0-.042c-.178-3.422-.334-6.245-.486-8.886-3.994,4.036-7.656,7.743-10.777,10.9l-.266.269-.32.325c-2.348,2.377-4.092,4.145-5.834,5.913-2.443-2.9-4.377-5.212-6.461-7.761,3.16-3.243,6.369-6.511,9.654-9.852l.3-.308.012-.013.332-.337c2.771-2.82,5.914-6.017,8.986-9.169.439-.435.893-.872,1.318-1.282l.189-.183.008-.008a40.064,40.064,0,0,0,4.377-4.672c3.2-4.325,5.371-8.053,1.8-13.341a32.168,32.168,0,0,1-5.463-15.115,38.59,38.59,0,0,1,2.236-16.106,12.249,12.249,0,0,0,.393-4.767l0-.013-.008-.151a20.066,20.066,0,0,1,0-2.447,88.709,88.709,0,0,0-.57-19.395,61.58,61.58,0,0,1-.445-14.194,55.948,55.948,0,0,1,2.727-13,61.039,61.039,0,0,1,5.576-11.942,77.559,77.559,0,0,1,8.1-11,102.032,102.032,0,0,1,13.541-12.962,117.646,117.646,0,0,1,15.531-10.405c3.393-1.93,4.861-4.058,5.416-7.853a62.624,62.624,0,0,1,4.943-17.351,56.518,56.518,0,0,1,9.381-14.4,57.309,57.309,0,0,1,13.332-10.942,64.909,64.909,0,0,1,16.8-6.974A59.272,59.272,0,0,1-16457.561-47a61.1,61.1,0,0,1,13.688,1.566,62.121,62.121,0,0,1,12.975,4.564,61.575,61.575,0,0,1,11.7,7.374,60.266,60.266,0,0,1,9.855,9.981c.141.189.283.379.426.568l.215.284.213.284c1.129,1.478,2.389,3.415,2.1,5.292a4.512,4.512,0,0,1-2.1,2.94,4.859,4.859,0,0,1-2.807,1.049c-2.1,0-3.7-1.871-4.982-3.7-9.406-13.13-24.455-20.661-41.289-20.661-17.453,0-33.668,8.1-42.316,21.135a43.394,43.394,0,0,0-7.508,20.244c3.4-.89,6.793-1.9,10.076-2.87l.02-.006.172-.051.006,0a155.919,155.919,0,0,1,20.51-5.111,159.98,159.98,0,0,1,23.768-1.84,135.711,135.711,0,0,1,24.975,2.273,124.343,124.343,0,0,1,23.555,6.87,127.514,127.514,0,0,1,22.063,11.559,145.089,145.089,0,0,1,20.506,16.33,63.4,63.4,0,0,1,15.985,23.663,64.592,64.592,0,0,1,3.585,28.559c-.687,8-.862,15.871-.949,23.18a44.228,44.228,0,0,0,1.321,9.237v.006l.006.025c2.328,10.865,1.15,19.7-3.706,27.814-1.994,3.28-2.715,5.59-2.41,7.724s1.653,4.2,4.5,6.941c8.541,8.312,17.73,16.381,26.41,23.934-.459.447-.893.865-1.311,1.269l-.4.383-.2.191-.768.742-.129.125-.146.141c-1.9,1.834-3.4,3.283-5.03,4.906-1.442-1.488-2.924-3.024-4.2-4.348l-.609-.632-.013-.017-.483-.5c-3.435-3.562-6.987-7.246-10.563-10.866a.927.927,0,0,0-.67-.275.9.9,0,0,0-.945.841c-.2,4.688-.418,9.6-.615,13.943l-.039.855-.061,1.344-.015.316c-.263,5.84-.534,11.879-.778,18.006h-9.322v-3.056a80.225,80.225,0,0,1-9.515,8.544,59.739,59.739,0,0,1-9.868,6.1,49.177,49.177,0,0,1-10.243,3.652,46.884,46.884,0,0,1-10.646,1.216,53.323,53.323,0,0,1-12.312-1.495,71.291,71.291,0,0,1-12.875-4.484,19.4,19.4,0,0,0-1.809,5.2l-.006.012a5.965,5.965,0,0,0-.654,1.787,2.792,2.792,0,0,0-.381.754,1.786,1.786,0,0,1-.1.166c-.014.019-.023.035-.033.051l-.014.018-.01.015a1.642,1.642,0,0,0-.223.417c-.672.713-1.277,1.361-1.8,1.928l-.047.05-.078.085c-1.443,1.547-3.078,3.3-3.959,4.179a38.176,38.176,0,0,1-12.7,8.44A38.235,38.235,0,0,1-16455.086,245Zm-61.74-122.42a49.178,49.178,0,0,1,15.23,2.436,32.3,32.3,0,0,1,3.889,1.42c1.848.784,3.746,1.712,5.8,2.836a39.473,39.473,0,0,1,3.7,2.273,47.88,47.88,0,0,1,8.27,6.812,41.719,41.719,0,0,1,2.848,3.119,52.792,52.792,0,0,1,6.746,10.409c.09.21.184.414.273.611l.055.123c.02.04.037.08.057.12s.027.058.039.087l0,0c.154.331.3.663.43.945.535,1.249,1,2.446,1.52,3.881l.57,1.986.566,1.986a30.377,30.377,0,0,1,.857,4.068,47.441,47.441,0,0,1,.662,10.5c-.086,1.3-.18,2.783-.379,4.255a54.154,54.154,0,0,1-1.232,6.433l-.008.021a8.6,8.6,0,0,1-.754,1.969,14.193,14.193,0,0,1-4.367,5.1c-6.076,4.281-9.5,9.883-10.168,16.651a7.724,7.724,0,0,1-.051.8l0,.046c-.021.227-.043.484-.043.758,0,1.021,0,2.178.1,3.314a20.361,20.361,0,0,0,2.373,8.607,19.662,19.662,0,0,0,4.467,5.3,21.431,21.431,0,0,0,6.367,3.5,49.246,49.246,0,0,0,6.457,1.8c.26.036.525.087.807.141l.135.026c.377.074.816.157,1.246.212a55.087,55.087,0,0,0,6.744.471c.4,0,.779-.023,1.1-.046l.123-.007c.311-.019.631-.038.967-.038a30.12,30.12,0,0,0,6.08-1.041l.045-.013a23.415,23.415,0,0,0,3.564-1.311,21.95,21.95,0,0,0,12.543-14.569c1.748-6.964-.227-14.481-5.414-20.623a29.953,29.953,0,0,0-5.988-5.392,4.951,4.951,0,0,1-1.082-.888l-.055-.053,0-.008,0,0-.018-.018-.008-.007a6.457,6.457,0,0,1-1.016-1.2,5.737,5.737,0,0,1-.568-.911l-.018-.03c-.076-.14-.168-.315-.268-.479a4.486,4.486,0,0,1-.57-1.42,52.652,52.652,0,0,1-1.8-12.758,50.3,50.3,0,0,1,1.328-12.4c.287-.989.578-2.007.828-2.883l.273-.964.041-.129a50.061,50.061,0,0,1,7.6-14.661l.393-.487.391-.487.074-.092c.57-.716,1.162-1.457,1.8-2.152a51.924,51.924,0,0,1,6.176-5.958,65.627,65.627,0,0,1,7.219-5.013,52.143,52.143,0,0,1,9.707-4.459,48.118,48.118,0,0,1,10.055-2.261c.338-.047.682-.072,1-.092l.059,0c.307-.024.625-.048.936-.091a29.075,29.075,0,0,1,4.09-.192,50.848,50.848,0,0,1,11.042,1.362,49.515,49.515,0,0,1,10.617,3.843,55.4,55.4,0,0,1,13.966,9.935c.553.553,1.129,1.059,1.738,1.594l.025.022.185.162c.332.289.717.626,1.091.966a29.044,29.044,0,0,0,3.8-7.1,23.914,23.914,0,0,0-.1-16.464,12.822,12.822,0,0,1-.666-2.552,23.475,23.475,0,0,1-.283-4.447v-9.364c0-3.234.105-6.6.189-9.311l0-.057c0-2.122.2-4.311.379-6.242a61.759,61.759,0,0,0,.379-8.232c0-.312-.022-.644-.041-.911l0-.08v-.014c-.021-.288-.049-.646-.049-.981a55.494,55.494,0,0,0-.57-5.771,56.294,56.294,0,0,0-4.847-15.989c-.2-.368-.4-.758-.6-1.135l-.036-.068-.11-.209-.1-.182,0-.008c-.044-.083-.088-.166-.131-.25l-.073-.139c-.222-.423-.438-.834-.653-1.227a54.621,54.621,0,0,0-4.085-6.242c-.321-.4-.688-.851-1.12-1.378l-.008-.013-.461-.568-.107-.133c-.227-.28-.462-.57-.681-.844a35.16,35.16,0,0,0-2.565-2.836c-.421-.422-.855-.832-1.275-1.229l-.013-.012-.145-.137,0,0c-.437-.414-.933-.884-1.411-1.362a60.585,60.585,0,0,0-4.655-3.972,133.635,133.635,0,0,0-27.456-16.747c-1.807-.816-3.77-1.633-6.367-2.648a125,125,0,0,0-16.338-4.922,127.635,127.635,0,0,0-16.914-2.552c-3.113-.259-6.4-.379-10.359-.379-3.93,0-7.379.124-10.543.379a152.341,152.341,0,0,0-17.953,2.552l-.172.038c-2.93.639-5.961,1.3-8.855,2.14l-.014,0c-2.74.79-5.844,1.685-8.73,2.74a112.954,112.954,0,0,0-12.537,5.2,105.95,105.95,0,0,0-32.682,24.5,18.713,18.713,0,0,0-1.279,1.449c-.162.2-.346.42-.527.633a63.334,63.334,0,0,0-4.752,6.433,50.158,50.158,0,0,0-4.75,9.273l-.033.1c-.518,1.46-1.105,3.114-1.58,4.822a51.734,51.734,0,0,0-1.426,7.757l0,.039,0,.021a23.656,23.656,0,0,0-.18,2.592,54.249,54.249,0,0,0,0,5.579c.281,4.736.471,9.51.566,14.19.133,3.337.178,6.847.211,9.41v.008l0,.265.01.8c.018,1.217.035,2.476.063,3.708,0,1.216,0,2.365-.1,3.6l-.014.117a21.113,21.113,0,0,1-.461,3.381,16.154,16.154,0,0,1-.668,2.273,24.17,24.17,0,0,0-1.424,6.054,16.726,16.726,0,0,0,0,4.351,17.216,17.216,0,0,0,.854,4.255,27.551,27.551,0,0,0,3.232,6.812c.258.344.52.774.773,1.191l.016.027.035.056.033.05c.217-.218.439-.419.654-.612l.045-.039.012-.011c.213-.188.465-.415.713-.662a8.547,8.547,0,0,1,.838-.854l0,0,.1-.1c.137-.129.262-.246.385-.37a54.227,54.227,0,0,1,12.066-8.985c.242-.124.482-.259.666-.362l.02-.011a10.247,10.247,0,0,1,1.117-.572,58.442,58.442,0,0,1,7.6-3.031A49.709,49.709,0,0,1-16516.826,122.578Zm122.707,9.206a44.894,44.894,0,0,0-10.951,1.366c-18.795,4.771-31.244,20.431-32.49,40.868.416,1.169.744,2.434,1.061,3.657l.047.178.006.027,0,.014c.756,2.916,1.535,5.931,3.438,7.763a49.475,49.475,0,0,1,12.637,18.541,10.916,10.916,0,0,0,4.086,5.3,40.767,40.767,0,0,0,22.146,6.4,42.919,42.919,0,0,0,29.159-11.413c13.335-12.523,16.643-34.485,7.694-51.086A41.691,41.691,0,0,0-16394.119,131.784Zm-122.316.312c-23.176,0-40.555,16.15-42.262,39.273a40.745,40.745,0,0,0,10.738,31.041,41.992,41.992,0,0,0,31.064,13.424c.463.017.938.025,1.408.025a38.794,38.794,0,0,0,21.105-6.271,10.447,10.447,0,0,0,3.8-4.826,43.108,43.108,0,0,1,4.75-9.693,34.9,34.9,0,0,1,7.316-7.995,9.616,9.616,0,0,0,3.322-5.3,41.55,41.55,0,0,0-6.8-32.365,40.4,40.4,0,0,0-27.4-16.83A52.588,52.588,0,0,0-16516.436,132.1Zm1.482,55.166h-.133a11.672,11.672,0,0,1-7.982-3.606,11.757,11.757,0,0,1-3.705-7.936,11.544,11.544,0,0,1,3.506-8.115,11.839,11.839,0,0,1,8.273-3.71,11.834,11.834,0,0,1,8.031,3.606,11.729,11.729,0,0,1,3.752,7.936,11.558,11.558,0,0,1-3.594,8.044A11.773,11.773,0,0,1-16514.953,187.262Zm123.09-.945a11.68,11.68,0,0,1-7.982-3.606,11.774,11.774,0,0,1-3.705-7.936,11.6,11.6,0,0,1,3.531-8.174,11.608,11.608,0,0,1,8.105-3.652h.146a11.833,11.833,0,0,1,8.027,3.593,11.59,11.59,0,0,1,3.752,7.853,11.627,11.627,0,0,1-3.61,8.111A11.92,11.92,0,0,1-16391.863,186.317Z" transform="translate(17420 306)"/>
    <path id="Subtraction_1" data-name="Subtraction 1" d="M76.047,234.265l-.136,0a11.423,11.423,0,0,1-8.18-19.655,11.844,11.844,0,0,1,8.274-3.711,12.7,12.7,0,0,1,11.782,11.542,11.551,11.551,0,0,1-3.591,8.043A11.777,11.777,0,0,1,76.047,234.265Zm123.089-.949a11.69,11.69,0,0,1-.049-23.368h.144a11.844,11.844,0,0,1,8.028,3.595,10.49,10.49,0,0,1,.145,15.962A11.919,11.919,0,0,1,199.136,233.316Zm-35-97.1H107.389c-2.682,0-4.865-1.89-4.865-4.213s2.182-4.214,4.865-4.214h56.748c2.682,0,4.864,1.89,4.864,4.214S166.819,136.211,164.137,136.211Zm0-17.89H107.389c-2.682,0-4.865-1.89-4.865-4.214s2.182-4.214,4.865-4.214h56.748c2.682,0,4.864,1.89,4.864,4.214S166.819,118.321,164.137,118.321Z" transform="translate(829 259)"/>
  </g>
</svg>
